<svg xmlns="http://www.w3.org/2000/svg" width="26" height="21.11" viewBox="0 0 26 21.11">
  <path id="Shape_5" data-name="Shape 5" d="M893.685,1501.885a5.482,5.482,0,0,1,4.216,1.674,8.64,8.64,0,0,0,2.733-.921l.664-.364a5.335,5.335,0,0,1-1.731,2.5,2.548,2.548,0,0,1-.586.415v.013a9.994,9.994,0,0,0,3.019-.818v.013a8.621,8.621,0,0,1-1.809,2.077l-.833.662a15.3,15.3,0,0,1-.247,3.426c-1.332,5.99-4.862,10.056-10.45,11.8a15.972,15.972,0,0,1-7.548.311,19.464,19.464,0,0,1-3.136-1.025,12.563,12.563,0,0,1-1.509-.779l-.469-.286a8.726,8.726,0,0,0,1.7.065c.524-.085,1.039-.062,1.523-.169a10.916,10.916,0,0,0,3.2-1.155,5.938,5.938,0,0,0,1.444-.947,4.523,4.523,0,0,1-1.588-.286,5.359,5.359,0,0,1-3.383-3.413c.523.057,2.029.193,2.381-.1a3.9,3.9,0,0,1-1.744-.7,5.135,5.135,0,0,1-2.512-4.568l.546.26a5.82,5.82,0,0,0,1.119.312,1.6,1.6,0,0,0,.729.065H879.4c-.269-.312-.706-.521-.976-.856a5.454,5.454,0,0,1-1.2-4.841,6.191,6.191,0,0,1,.573-1.389l.026.013a3.269,3.269,0,0,0,.482.558,9.794,9.794,0,0,0,1.588,1.518,15.7,15.7,0,0,0,6.519,3.154,10.2,10.2,0,0,0,2.394.312,4.959,4.959,0,0,1,.026-2.505,5.262,5.262,0,0,1,3.019-3.582,6.451,6.451,0,0,1,1.184-.364Z" transform="translate(-876 -1501.883)" fill="#d8d8d8"/>
</svg>
